<?xml version="1.0" encoding="utf-8"?>
<!-- Generator: Adobe Illustrator 24.0.1, SVG Export Plug-In . SVG Version: 6.00 Build 0)  -->
<svg version="1.1" id="Layer_1" xmlns="http://www.w3.org/2000/svg" xmlns:xlink="http://www.w3.org/1999/xlink" x="0px" y="0px"
	 viewBox="0 0 468 343" style="enable-background:new 0 0 468 343;" xml:space="preserve">
<style type="text/css">
	.st0{fill:#5C6F7C;}
	.st1{fill:#FFD200;}
	.st2{fill:#009DDC;}
</style>
<g>
	<g>
		<g>
			<path class="st0" d="M376.88,278.56c-1.69,1.13-11.83,8.17-28.96,8.06c-54.51-0.34-46.2,4.87-46.2,4.87
				c15.1-24.68-85.48,4.65-85.48,4.65c20-50.65-131.5,24.45-131.5,24.45c-4.62,2.46-1.37,4.83-0.67,5.14
				c1.28,0.56,2.91-0.08,3.75-0.5c64.79-32.47,97.26-31.44,97.26-31.44c14.28-0.6,12.16,2.11,12.16,2.11
				c-32.98,20.24-24.6,25.82-23.25,26.62c1.29,0.76,3.95-0.25,4.57-0.48c50.95-19.97,76.23-20.06,76.23-20.06
				c-21.81,9.21-17.32,16.21-17.32,16.21c4.06,4.87,10.74,1.8,10.74,1.8c61.69-27.29,82.5-21.76,95.6-22.11
				C367.62,297.24,375.19,284.63,376.88,278.56z"/>
		</g>
	</g>
	<g>
		<path class="st0" d="M18.51,195.37c0-28.54,22.14-49.55,49.98-49.55c27.82,0,49.97,21.01,49.97,49.55
			c0,28.53-22.15,49.55-49.97,49.55C40.66,244.91,18.51,223.9,18.51,195.37z M98.02,195.37c0-18.04-11.93-31.8-29.53-31.8
			c-17.61,0-29.53,13.77-29.53,31.8c0,18.03,11.92,31.8,29.53,31.8C86.09,227.17,98.02,213.39,98.02,195.37z"/>
		<path class="st0" d="M146.02,147.1h35.78c19.73,0,35.91,9.23,35.91,31.8c0,14.62-7.66,23.85-18.88,28.25l22.01,36.49h-22.72
			l-19.58-33.51h-12.64v33.51h-19.87V147.1z M181.22,193.38c9.79,0,16.04-3.84,16.04-14.48c0-10.79-6.53-14.34-16.04-14.34h-15.33
			v28.82H181.22z"/>
		<path class="st0" d="M245.97,147.1h63.88v17.45h-44.01v22.15h38.76v17.04h-38.76v22.43h46v17.46h-65.87V147.1z"/>
		<path class="st0" d="M340.95,146.1h1.56l47.56,52.25l46.86-52.25h1.7v97.54h-19.17v-36.21c0-6.53,0.71-16.89,0.71-16.89
			s-5.82,8.52-10.37,13.63l-19.17,21.44h-1.85l-19.16-21.44c-4.54-5.11-10.37-13.63-10.37-13.63s0.71,10.36,0.71,16.89v36.21h-19.02
			V146.1z"/>
	</g>
	<g>
		<path class="st1" d="M276.16,56.1c0.69,9.94-6.78,18.57-16.71,19.27c-9.94,0.7-18.57-6.79-19.27-16.73
			c-0.7-9.93,6.79-18.56,16.73-19.26C266.83,38.68,275.45,46.17,276.16,56.1z"/>
	</g>
	<g>
		<g>
			<path class="st2" d="M19.96,125.85c10.92-0.76,21.4-3.91,31.2-8.53c4.9-2.3,9.65-4.94,14.24-7.85c4.6-2.89,9.05-6.04,13.38-9.37
				c8.67-6.65,16.73-14.09,24.67-21.77c1.99-1.92,3.99-3.84,5.98-5.8c1.99-1.98,3.99-3.93,6.14-5.99c0.54-0.51,1.11-1.02,1.72-1.56
				c0.61-0.54,1.25-1.08,2.13-1.69c0.46-0.31,0.94-0.63,1.81-1.01c0.44-0.18,1-0.4,1.88-0.54c0.25-0.04,0.54-0.06,0.8-0.07
				l0.43-0.01l0.14,0l0.43,0.02c0.31,0.02,0.51,0.04,0.75,0.07c0.23,0.03,0.47,0.08,0.71,0.13c0.49,0.11,0.98,0.26,1.48,0.47
				c0.99,0.4,1.93,1.03,2.67,1.74c1.53,1.43,2.26,2.96,2.73,4.21c0.48,1.27,0.73,2.39,0.91,3.43c0.19,1.04,0.29,2.01,0.38,2.97
				l0.1,1.43l0.03,0.73c0.01,0.28,0.03,0.45,0,0.88l0,0.01l-11.86-7.01l56.9-45.78l5.8-4.67l3.66,6.29h0
				c4.73,7.79,9.72,15.6,14.79,23.25c5.09,7.66,10.31,15.23,15.72,22.61c5.42,7.36,11.05,14.56,17.03,21.21
				c2.99,3.3,6.09,6.48,9.28,9.18c1.59,1.34,3.21,2.57,4.74,3.47c0.76,0.45,1.49,0.81,2.1,1.04c0.6,0.23,1.07,0.29,1.14,0.28
				l0.18-0.02l0.5,0.05c0.5,0.05,1.37-0.02,2.4-0.32c1.03-0.29,2.2-0.77,3.38-1.37c2.38-1.21,4.84-2.85,7.23-4.66
				c4.78-3.66,9.41-7.93,13.86-12.41c4.46-4.48,8.72-9.24,12.94-14.05l12.6-14.46l3.85-4.42l4.03,3.37l0,0
				c0.69,0.53,1.21,0.95,1.79,1.42l1.66,1.39c1.09,0.94,2.16,1.89,3.21,2.85c2.1,1.93,4.14,3.93,6.11,6
				c3.95,4.13,7.65,8.53,11.03,13.22l-10.5,0.03l0,0c0.53-0.77,0.93-1.32,1.41-1.94c0.46-0.6,0.94-1.19,1.42-1.77
				c0.96-1.16,1.96-2.3,3.04-3.39c2.15-2.18,4.47-4.3,7.32-6.14c1.43-0.91,2.99-1.77,4.79-2.45c1.79-0.67,3.85-1.19,6.15-1.18
				c0.57,0.01,1.15,0.04,1.74,0.12c0.29,0.04,0.58,0.08,0.88,0.14l0.44,0.09l0.18,0.04l0.06,0.02l0.12,0.03l0.75,0.21
				c0.31,0.09,0.51,0.17,0.77,0.26c0.49,0.18,0.97,0.38,1.42,0.59c1.85,0.87,3.4,1.99,4.72,3.16c2.63,2.35,4.46,4.84,6.13,7.25
				c1.65,2.41,3.11,4.79,4.55,7.11c2.86,4.65,5.68,9.09,8.89,13.2c3.19,4.11,6.75,7.86,10.77,11.1c4,3.24,8.46,5.95,13.23,8.07
				c9.55,4.27,20.23,6.25,31,6.71c0.93,0.04,1.66,0.83,1.62,1.76c-0.04,0.88-0.75,1.58-1.62,1.62c-11.06,0.45-22.47-0.5-33.29-4.37
				c-5.39-1.92-10.6-4.55-15.37-7.84c-4.78-3.28-9.11-7.21-12.97-11.46c-3.87-4.24-7.27-8.82-10.5-13.25
				c-1.62-2.21-3.2-4.39-4.8-6.37c-1.59-1.97-3.23-3.77-4.8-4.94c-0.78-0.59-1.52-0.99-2.18-1.22c-0.17-0.06-0.33-0.11-0.49-0.15
				c-0.07-0.01-0.19-0.05-0.21-0.04c-0.04,0-0.02,0-0.25-0.04l-0.13-0.02l-0.06-0.01l-0.03-0.01c-0.11-0.02,0.12,0.03,0.09,0.02
				l-0.07,0c-0.04-0.01-0.09,0-0.14,0c-0.09,0-0.2,0.01-0.31,0.01c-0.88,0.06-2.56,0.76-4.23,2.02c-1.68,1.23-3.41,2.84-5.02,4.62
				c-0.8,0.9-1.61,1.82-2.38,2.77c-0.38,0.48-0.76,0.96-1.13,1.45c-0.35,0.46-0.76,1.02-1.01,1.37l0,0l-5.13,8.31l-5.37-8.29
				c-2.79-4.31-5.94-8.45-9.35-12.38c-1.7-1.97-3.47-3.88-5.3-5.74c-0.91-0.93-1.84-1.84-2.78-2.72l-1.41-1.31l-1.36-1.2h0
				l7.88-1.05c-1.87,2.86-3.77,5.51-5.78,8.17c-1.98,2.66-4.04,5.26-6.16,7.82c-4.24,5.11-8.71,10.04-13.39,14.85
				c-4.71,4.79-9.6,9.47-15.2,13.71c-2.81,2.12-5.78,4.14-9.21,5.89c-1.72,0.87-3.58,1.66-5.68,2.26c-2.1,0.58-4.5,1-7.26,0.72
				l0.68,0.04c-2.25-0.02-4.07-0.53-5.64-1.11c-1.56-0.59-2.91-1.29-4.14-2.03c-2.46-1.47-4.53-3.09-6.48-4.74
				c-3.88-3.32-7.25-6.83-10.47-10.41c-6.42-7.18-12.18-14.66-17.76-22.24c-5.57-7.59-10.89-15.3-16.07-23.11
				c-5.18-7.82-10.19-15.65-15.1-23.73v0l9.47,1.62l-55.65,47.3l-16.05,13.64l4.19-20.65v0c0.03,0.09,0.11-0.09,0.16-0.16
				c0.06-0.09,0.11-0.2,0.16-0.31c0.11-0.21,0.2-0.44,0.28-0.66c0.17-0.44,0.27-0.86,0.37-1.21c0.08-0.35,0.11-0.62,0.18-0.68
				c0.06-0.07,0.16,0.17,0.69,0.61c0.25,0.22,0.61,0.44,0.96,0.56c0.18,0.06,0.34,0.11,0.49,0.13c0.07,0.01,0.14,0.02,0.2,0.02
				l0.23,0.01l0.17,0L124,73.28l-0.07-0.01l-0.03,0h0.26c0.18,0,0.37-0.02,0.54-0.05c0.54-0.09,0.76-0.2,0.88-0.25
				c0.22-0.12,0.1-0.09-0.03-0.02c-0.29,0.14-0.76,0.45-1.23,0.79c-0.48,0.34-0.97,0.73-1.48,1.13c-4.08,3.34-8.2,7.28-12.36,11.03
				c-8.38,7.54-17.21,14.74-26.58,21.24c-9.38,6.48-19.4,12.2-30.16,16.31c-5.38,2.02-10.92,3.69-16.59,4.69
				c-5.66,1.03-11.46,1.45-17.15,1.1l-0.03,0c-0.93-0.06-1.65-0.86-1.59-1.8C18.44,126.58,19.12,125.91,19.96,125.85z"/>
		</g>
	</g>
</g>
</svg>
